<svg width="5927" height="4020" viewBox="0 0 5927 4020" fill="none" xmlns="http://www.w3.org/2000/svg">
<g clip-path="url(#clip0_333_3)">
<path d="M3868.23 1755.3C3861.4 1792.31 3853.21 1828.93 3843.66 1865.18C3842.62 1869.39 3841.46 1873.54 3840.3 1877.74H3707.43C3696.12 1877.76 3685.27 1882.39 3677.27 1890.64C3669.26 1898.88 3664.76 1910.06 3664.75 1921.72V2311.97C3660.73 2319.7 3656.64 2327.37 3652.56 2335.03C3631.46 2374.61 3609.51 2413.75 3587.06 2452.38C3221.16 3080.33 2710.83 3605.81 2101.11 3982.43L2137.21 3898.5C2123.98 3897.56 2110.69 3896.62 2097.46 3895.67C1809.34 3875.38 1520.25 3852.89 1238.9 3786.17C944.562 3716.38 656.629 3595.32 425.953 3394.6C195.213 3193.82 26.0642 2907.1 2.5874 2596.88C-5.24086 2490.26 5.2249 2383.06 33.5047 2280.19C87.5891 2082.17 205.765 1904 376.257 1798.59C644.068 1633.05 993.406 1666.79 1275.73 1804.49C1557.99 1942.14 1787.75 2170 2012.09 2393.9C1785.59 1993.73 1470.23 1654.6 1091.88 1404.31C966.514 1321.64 833.463 1248.01 726.875 1140.9C620.347 1033.85 541.747 883.763 560.591 731.669C581.992 559.158 719.131 428.235 856.511 327.279C911.391 286.947 968.038 248.688 1026.46 213.507C1191.28 113.996 1369.57 38.9228 1557.87 11.0924C1812.94 -26.6641 2088.43 30.6303 2283.99 203.518C2504.3 398.332 2594.66 712.508 2586.07 1013.05C2721.8 809.758 2931.14 654.146 3167.54 647.549C3412.98 640.765 3646.28 800.523 3769.2 1019.52C3892.08 1238.46 3914.15 1506.84 3868.23 1755.3Z" fill="#E6E6E6"/>
<path d="M2315.4 2599.61C2459.15 2586.57 2591.94 2571.33 2731.24 2530.72C2866.26 2491.35 2996.19 2425.46 3092.31 2317.86C3195.7 2202.13 3251.5 2051.83 3290.88 1902.22C3312.83 1818.8 3330.87 1734.22 3347.89 1649.61C3366.36 1557.8 3382.77 1465.59 3397.12 1372.98C3425.68 1188.62 3446.08 1003.19 3458.3 816.66C3459.77 794.019 3461.13 771.369 3462.36 748.712C3463.12 734.735 3442.02 734.78 3441.26 748.712C3431.22 932.572 3413.16 1115.72 3387.08 1298.14C3361.35 1477.38 3328.42 1655.83 3286.64 1831.86C3251.24 1980.97 3205.42 2132.42 3114.65 2256.55C3029.53 2372.96 2906.58 2449.03 2773.83 2494.51C2638.75 2540.79 2496.32 2559.27 2355.17 2573.01C2337.85 2574.69 2332.72 2576.3 2315.4 2577.87C2301.98 2579.09 2301.85 2600.84 2315.4 2599.61Z" fill="white"/>
<path d="M45.6792 2296.23C227.047 2306.59 406.571 2339.18 580.453 2393.31C754.41 2447.33 921.577 2522.3 1078.49 2616.66C1230.11 2707.91 1370.86 2817.09 1497.89 2941.99C1621.17 3063.28 1731.05 3198.25 1825.51 3344.45C1920.39 3491.01 1999.03 3648.07 2059.94 3812.68C2067.37 3832.83 2074.52 3853.08 2081.4 3873.44C2085.85 3886.56 2106.24 3880.91 2101.75 3867.66C2044.76 3699.56 1969.64 3538.59 1877.79 3387.77C1785.96 3236.94 1678.18 3097.05 1556.44 2970.68C1432.74 2842.35 1295.08 2729.17 1146.18 2633.37C833.543 2432.73 479.172 2311.36 112.165 2279.21C90.0269 2277.29 67.8649 2275.72 45.6795 2274.49C32.1121 2273.72 32.1535 2295.46 45.6792 2296.23Z" fill="white"/>
<path d="M1032.15 238.988C1148.12 276.985 1258.04 332.324 1358.39 403.233C1460.94 476.184 1554.46 561.753 1636.89 658.043C1723.75 759.337 1800.97 868.986 1867.5 985.482C1938.06 1108.49 1999.36 1236.89 2050.86 1369.55C2103.88 1505.75 2148.48 1645.28 2184.39 1787.29C2220.88 1930.99 2249.39 2076.71 2269.77 2223.75C2290.05 2369.24 2302.32 2515.78 2306.53 2662.69C2310.77 2803.17 2306.73 2943.78 2294.46 3083.76C2283.23 3214.35 2262.72 3343.91 2233.09 3471.41C2206.79 3586.57 2169.71 3698.83 2122.39 3806.61C2111.43 3831.08 2099.8 3855.2 2087.5 3878.99C2081.12 3891.33 2099.32 3902.32 2105.72 3889.96C2158.01 3787.01 2199.77 3678.72 2230.32 3566.87C2264.59 3442.35 2289.43 3315.27 2304.62 3186.79C2321.46 3047.4 2329.66 2907.04 2329.17 2766.58C2328.87 2619 2320.34 2471.57 2303.63 2325.01C2286.92 2176.61 2262.1 2029.31 2229.3 1883.79C2196.58 1738.04 2155.08 1594.52 2105.03 1454.09C2056.79 1318.14 1999.03 1185.98 1932.21 1058.65C1868.56 937.145 1794.4 821.814 1710.61 714.06C1631.03 611.463 1540.19 518.713 1439.89 437.664C1343.18 359.746 1236.3 296.233 1122.41 248.991C1094.58 237.578 1066.36 227.257 1037.76 218.027C1024.78 213.819 1019.23 234.798 1032.15 238.988Z" fill="white"/>
<path d="M2283.62 4020C3117.12 4020 3792.8 3991.87 3792.8 3957.18C3792.8 3922.48 3117.12 3894.36 2283.62 3894.36C1450.12 3894.36 774.434 3922.48 774.434 3957.18C774.434 3991.87 1450.12 4020 2283.62 4020Z" fill="#E6E6E6"/>
<path d="M3617 1989.5C3616.25 1992.89 3615.76 1996.34 3615.54 1999.81L3353.6 2155.49L3289.93 2117.73L3222.05 2209.28L3358.26 2309.3L3657.1 2066.41C3669.28 2071.05 3682.56 2071.77 3695.15 2068.45C3707.74 2065.14 3719.05 2057.95 3727.59 2047.85C3736.12 2037.75 3741.46 2025.22 3742.91 2011.91C3744.36 1998.6 3741.84 1985.16 3735.69 1973.36C3729.54 1961.57 3720.05 1951.98 3708.48 1945.88C3696.91 1939.77 3683.82 1937.44 3670.93 1939.2C3658.05 1940.95 3645.99 1946.7 3636.35 1955.69C3626.72 1964.67 3619.97 1976.47 3617 1989.5Z" fill="#FFB8B8"/>
<path d="M3020.44 2085.02L3226.69 2236.47L3318.94 2117.31L3118.45 1951.57C3109.82 1944.44 3099.87 1939.2 3089.21 1936.16C3078.55 1933.13 3067.4 1932.38 3056.45 1933.94C3045.49 1935.5 3034.96 1939.36 3025.5 1945.26C3016.05 1951.16 3007.86 1958.99 3001.44 1968.27C2988.93 1986.35 2983.91 2008.81 2987.47 2030.7C2991.04 2052.6 3002.9 2072.13 3020.44 2085.02Z" fill="#6C63FF"/>
<path d="M2594.69 3813.07L2667.01 3832.59L2774.51 3554.51L2667.78 3525.7L2594.69 3813.07Z" fill="#FFB8B8"/>
<path d="M2788.88 3939.42L2561.6 3878.07L2584.61 3787.6L2724.08 3825.25C2747.37 3831.53 2767.28 3847.1 2779.43 3868.51C2791.58 3889.92 2794.98 3915.43 2788.88 3939.42Z" fill="#2F2E41"/>
<path d="M3237.53 3866.12L3311.12 3852.57L3295.44 3553.68L3186.83 3573.67L3237.53 3866.12Z" fill="#FFB8B8"/>
<path d="M3465.26 3896.86L3233.97 3939.42L3218.01 3847.36L3359.93 3821.24C3371.67 3819.08 3383.7 3819.32 3395.35 3821.95C3406.99 3824.58 3418.02 3829.55 3427.8 3836.58C3437.58 3843.6 3445.92 3852.54 3452.35 3862.88C3458.77 3873.22 3463.16 3884.77 3465.26 3896.86Z" fill="#2F2E41"/>
<path d="M3092.62 1668C3110.75 1672.54 3125.51 1691.58 3134.37 1713.64C3142.54 1736.8 3148.07 1760.87 3150.86 1785.35C3157.82 1830.93 3164.5 1880.29 3150.1 1922.51C3133.23 1972 3088.26 1997.92 3049.25 1985.74C3010.25 1973.56 2979.23 1927.84 2968.63 1875.21C2958.98 1822.03 2965.2 1767.09 2986.46 1717.62C2997.54 1691.63 3012.81 1667.65 3033.11 1655.93C3043.07 1649.72 3054.93 1647.63 3066.32 1650.08C3077.71 1652.52 3087.78 1659.32 3094.5 1669.11" fill="#2F2E41"/>
<path d="M3195.23 2493.41L3335.33 3786.26L3219.62 3831.53L3006.2 2964.58L2709.07 3757.26L2582.41 3764.51C2582.41 3764.51 2756.19 2531.1 2884.98 2503.07L3195.23 2493.41Z" fill="#2F2E41"/>
<path d="M3077.54 1832.99C3160.26 1832.99 3227.31 1763.91 3227.31 1678.69C3227.31 1593.47 3160.26 1524.39 3077.54 1524.39C2994.83 1524.39 2927.78 1593.47 2927.78 1678.69C2927.78 1763.91 2994.83 1832.99 3077.54 1832.99Z" fill="#FFB8B8"/>
<path d="M3141.82 1897.72L2979.98 1875.97C2979.98 1875.97 2874.43 2006.47 2881.47 2231.21C2888.5 2455.95 2863.88 2524.82 2863.88 2524.82L3201.33 2531.1C3152.54 2462 3356.58 2065.1 3141.82 1897.72Z" fill="#6C63FF"/>
<path d="M3228.76 2562.51C3225.39 2562.54 3222.02 2562.84 3218.69 2563.41L3011.65 2336.33L3032.76 2263.83L2930.72 2216.71L2867.39 2376.2L3165.28 2620.33C3163.68 2633.61 3166.04 2647.09 3172.05 2658.96C3178.06 2670.83 3187.44 2680.53 3198.94 2686.78C3210.43 2693.02 3223.5 2695.51 3236.41 2693.92C3249.31 2692.32 3261.44 2686.72 3271.17 2677.85C3280.91 2668.99 3287.8 2657.28 3290.92 2644.28C3294.04 2631.28 3293.24 2617.61 3288.64 2605.09C3284.03 2592.57 3275.84 2581.79 3265.14 2574.18C3254.45 2566.58 3241.76 2562.51 3228.76 2562.51Z" fill="#FFB8B8"/>
<path d="M3001.99 1986.07L2906.09 2227.58L3039.79 2292.83L3150.51 2053.82C3155.28 2043.54 3157.95 2032.36 3158.38 2020.97C3158.8 2009.59 3156.96 1998.23 3152.98 1987.61C3148.99 1976.98 3142.95 1967.3 3135.2 1959.16C3127.46 1951.03 3118.19 1944.6 3107.95 1940.29C3098.08 1936.13 3087.5 1934.01 3076.83 1934.06C3066.16 1934.11 3055.61 1936.32 3045.77 1940.57C3035.93 1944.82 3027 1951.03 3019.49 1958.84C3011.98 1966.64 3006.03 1975.9 3001.99 1986.07Z" fill="#6C63FF"/>
<path d="M3038.37 1818.97C3061.84 1805.02 3064.34 1771.38 3061.15 1743.66C3057.96 1715.94 3052.63 1685.04 3068.45 1662.38C3087.32 1635.33 3125.24 1634.79 3157.56 1633.91C3189.89 1633.03 3229.25 1623.28 3237.62 1591.1C3243.16 1569.84 3231.32 1547.03 3214.33 1533.68C3197.34 1520.33 3176.08 1514.43 3155.42 1508.83C3109.2 1496.28 3061.48 1483.63 3014.16 1490.53C2967.29 1497.36 2924.91 1522.92 2896.19 1561.7C2867.48 1600.47 2854.74 1649.34 2860.72 1697.72C2868.38 1759.6 2879.49 1786.63 2872.2 1813.92C2858.62 1864.74 2800.06 1897.39 2798.89 1950.09C2797.98 1991.32 2833.32 2023.12 2867.81 2044.05C2895.16 2060.65 2924.68 2074.74 2956.2 2078.63C2987.72 2082.52 3021.66 2075.08 3045.14 2053.06C3075.42 2024.67 3082.92 1977.24 3074.23 1936.02C3065.55 1894.79 3043.27 1858.18 3021.23 1822.63" fill="#2F2E41"/>
<path d="M5872.12 1865.18H3707.43C3692.89 1865.2 3678.94 1871.17 3668.65 1881.76C3658.37 1892.36 3652.58 1906.73 3652.55 1921.72V3354.08C3652.58 3369.07 3658.37 3383.44 3668.65 3394.03C3678.94 3404.63 3692.89 3410.6 3707.43 3410.62H5872.12C5886.67 3410.6 5900.62 3404.63 5910.9 3394.03C5921.19 3383.44 5926.98 3369.07 5927 3354.08V1921.72C5926.98 1906.73 5921.19 1892.36 5910.9 1881.76C5900.62 1871.17 5886.67 1865.2 5872.12 1865.18ZM5914.81 3354.08C5914.79 3365.74 5910.29 3376.92 5902.29 3385.16C5894.29 3393.4 5883.44 3398.04 5872.12 3398.05H3707.43C3696.12 3398.04 3685.27 3393.4 3677.27 3385.16C3669.26 3376.92 3664.76 3365.74 3664.75 3354.08V1921.72C3664.76 1910.06 3669.26 1898.88 3677.27 1890.64C3685.27 1882.39 3696.12 1877.76 3707.43 1877.74H5872.12C5883.44 1877.76 5894.29 1882.39 5902.29 1890.64C5910.29 1898.88 5914.79 1910.06 5914.81 1921.72V3354.08Z" fill="#3F3D56"/>
<path d="M4169.49 2578.19H3828.02C3814.28 2578.17 3801.1 2572.54 3791.39 2562.53C3781.67 2552.52 3776.2 2538.95 3776.19 2524.79V2172.98C3776.2 2158.82 3781.67 2145.25 3791.39 2135.24C3801.1 2125.23 3814.28 2119.6 3828.02 2119.58H4169.49C4183.23 2119.6 4196.4 2125.23 4206.12 2135.24C4215.84 2145.25 4221.3 2158.82 4221.32 2172.98V2524.79C4221.3 2538.95 4215.84 2552.52 4206.12 2562.53C4196.4 2572.54 4183.23 2578.17 4169.49 2578.19Z" fill="#6C63FF"/>
<path d="M5759.38 2952.04H3820.31C3809.8 2952.04 3799.71 2947.74 3792.28 2940.08C3784.85 2932.43 3780.67 2922.04 3780.67 2911.21C3780.67 2900.38 3784.85 2889.99 3792.28 2882.34C3799.71 2874.68 3809.8 2870.38 3820.31 2870.38H5759.38C5769.89 2870.38 5779.97 2874.68 5787.41 2882.34C5794.84 2889.99 5799.01 2900.38 5799.01 2911.21C5799.01 2922.04 5794.84 2932.43 5787.41 2940.08C5779.97 2947.74 5769.89 2952.04 5759.38 2952.04Z" fill="#CCCCCC"/>
<path d="M5760.68 2754.15H3821.61C3811.1 2754.15 3801.02 2749.85 3793.59 2742.19C3786.15 2734.54 3781.98 2724.15 3781.98 2713.32C3781.98 2702.49 3786.15 2692.1 3793.59 2684.44C3801.02 2676.79 3811.1 2672.48 3821.61 2672.48H5760.68C5771.2 2672.48 5781.28 2676.79 5788.71 2684.44C5796.14 2692.1 5800.32 2702.49 5800.32 2713.32C5800.32 2724.15 5796.14 2734.54 5788.71 2742.19C5781.28 2749.85 5771.2 2754.15 5760.68 2754.15Z" fill="#CCCCCC"/>
<path d="M4803.34 2483.95H4516.75C4506.24 2483.95 4496.16 2479.65 4488.72 2471.99C4481.29 2464.34 4477.11 2453.95 4477.11 2443.12C4477.11 2432.29 4481.29 2421.9 4488.72 2414.25C4496.16 2406.59 4506.24 2402.29 4516.75 2402.29H4803.34C4813.85 2402.29 4823.93 2406.59 4831.37 2414.25C4838.8 2421.9 4842.98 2432.29 4842.98 2443.12C4842.98 2453.95 4838.8 2464.34 4831.37 2471.99C4823.93 2479.65 4813.85 2483.95 4803.34 2483.95Z" fill="#CCCCCC"/>
<path d="M5760.68 2282.98H4516.75C4506.24 2282.98 4496.16 2278.68 4488.72 2271.02C4481.29 2263.36 4477.11 2252.98 4477.11 2242.15C4477.11 2231.32 4481.29 2220.93 4488.72 2213.27C4496.16 2205.61 4506.24 2201.31 4516.75 2201.31H5760.68C5771.19 2201.31 5781.27 2205.61 5788.71 2213.27C5796.14 2220.93 5800.32 2231.32 5800.32 2242.15C5800.32 2252.98 5796.14 2263.36 5788.71 2271.02C5781.27 2278.68 5771.19 2282.98 5760.68 2282.98Z" fill="#CCCCCC"/>
<path d="M4754.56 3153.08H3820.31C3809.8 3153.08 3799.71 3148.77 3792.28 3141.12C3784.85 3133.46 3780.67 3123.07 3780.67 3112.24C3780.67 3101.41 3784.85 3091.02 3792.28 3083.37C3799.71 3075.71 3809.8 3071.41 3820.31 3071.41H4754.56C4765.07 3071.41 4775.15 3075.71 4782.58 3083.37C4790.02 3091.02 4794.19 3101.41 4794.19 3112.24C4794.19 3123.07 4790.02 3133.46 4782.58 3141.12C4775.15 3148.77 4765.07 3153.08 4754.56 3153.08Z" fill="#CCCCCC"/>
</g>
<defs>
<clipPath id="clip0_333_3">
<rect width="5927" height="4020" fill="white"/>
</clipPath>
</defs>
</svg>
